<svg width="88" height="53" viewBox="0 0 88 53" fill="none" xmlns="http://www.w3.org/2000/svg">
<path d="M32.6807 37.9663C30.3876 37.6011 28.2971 36.5473 26.6563 34.9292C25.5638 33.8517 24.9214 32.9414 24.3804 31.7033C23.009 28.565 22.8753 25.5334 23.9735 22.4869C25.2453 18.9591 28.1317 16.2776 31.4926 15.5019C32.5854 15.2498 33.0368 15.1968 34.0891 15.1968C37.1013 15.1968 39.832 16.4227 41.8181 18.6667C42.6225 19.5756 43.7272 21.31 43.7272 21.6644C43.7272 21.7486 41.0534 23.9753 40.7701 24.1271C40.5979 24.2195 40.5585 24.2195 40.5585 24.1271C40.5582 23.8856 40.0113 22.8706 39.5544 22.2642C38.4599 20.8114 37.3057 19.9359 35.8419 19.4477C35.0281 19.1762 33.2304 19.1534 32.4167 19.4041C30.2653 20.0673 28.6843 21.6357 27.8582 23.9255C27.4868 24.9553 27.4074 25.4507 27.4127 26.7096C27.4187 28.1487 27.6083 29.0123 28.1794 30.2007C29.0163 31.9418 30.5015 33.2118 32.3728 33.7856C33.2232 34.0464 34.6739 34.0591 35.621 33.8141C36.3519 33.6252 36.4684 33.6648 36.7182 34.1872C36.8087 34.3766 36.9176 34.6004 36.9602 34.6849C37.0028 34.7693 37.0378 34.8918 37.0378 34.9568C37.0378 35.0218 37.1406 35.1716 37.2663 35.2894C37.3921 35.4073 37.5711 35.6528 37.6642 35.8352C37.7573 36.0173 37.8685 36.1666 37.9111 36.1666C37.9539 36.1666 38.0296 36.2837 38.0792 36.4272C38.129 36.5703 38.2434 36.7339 38.3333 36.7904C38.4873 36.8869 38.4803 36.9098 38.2154 37.1759C37.7047 37.6887 36.5705 37.9317 34.4851 37.9756C33.638 37.9937 32.8259 37.9894 32.6807 37.9663Z" fill="#F9FAFB" stroke="#F9FAFB"/>
<path d="M4.29315 37.5346C4.23646 37.466 4.21394 33.5926 4.22837 26.4351L4.25074 15.4408L7.59546 15.4145C11.4637 15.3843 12.1962 15.4396 14.0209 15.9005C14.9437 16.1339 16.4447 16.8702 17.3216 17.5202C17.9717 18.0021 18.9615 19.022 19.4687 19.7329C19.8089 20.2096 20.5914 21.7916 20.8653 22.5555C21.6439 24.7294 21.6677 28.0485 20.9216 30.4741C20.6462 31.3694 19.8408 32.9241 19.2566 33.6878C17.6661 35.7679 15.9906 36.7514 12.9206 37.406C12.621 37.4697 11.1618 37.5233 9.09179 37.5464C7.25219 37.5669 5.43953 37.5961 5.06368 37.6118C4.61038 37.6305 4.3509 37.6045 4.29315 37.5346ZM12.3769 33.5956C12.7971 33.4939 13.4766 33.2499 13.8871 33.0529C14.8912 32.5713 16.0598 31.4164 16.5493 30.4216C17.1498 29.2012 17.4096 28.0633 17.4096 26.653C17.4096 24.0003 16.3465 21.6779 14.5768 20.4654C13.5612 19.7695 13.0289 19.5715 11.66 19.381C10.702 19.248 8.49732 19.2549 8.36124 19.3914C8.20826 19.5451 8.20826 33.5205 8.36124 33.6742C8.43553 33.7488 8.93389 33.7802 10.0401 33.7802C11.3333 33.7802 11.7491 33.7474 12.3769 33.5956Z" fill="#F9FAFB" stroke="#F9FAFB"/>
<path d="M49.4482 37.5323C49.4482 37.5038 49.4901 37.4021 49.5412 37.3061C49.6274 37.1443 49.7061 37.1349 50.6635 37.1735C52.4436 37.2448 53.3296 37.3342 53.2947 37.4393C53.2611 37.5411 49.4482 37.6331 49.4482 37.5323Z" fill="#F9FAFB" stroke="#F9FAFB"/>
<path d="M53.2817 37.4677C53.3338 37.3313 52.5805 37.2466 50.6385 37.1716C49.7198 37.1359 49.6652 37.1437 49.5239 37.3314C49.3843 37.5175 49.3738 37.1378 49.3444 30.8598C49.3229 26.267 49.3421 24.1445 49.4063 24.0424C49.5269 23.8511 50.8321 22.3259 51.1276 22.0309C51.2527 21.906 51.6042 21.5056 51.9087 21.1412C52.2133 20.7767 52.7885 20.1204 53.187 19.6828C53.5853 19.2454 54.0099 18.7712 54.1305 18.6295L54.3496 18.3716L55.2571 19.7342C56.1667 21.1004 56.9724 22.2605 57.518 22.9896C57.8422 23.4225 57.8733 23.5276 57.6781 23.5276C57.6035 23.5276 57.546 23.6066 57.546 23.7089C57.546 23.8309 57.4597 23.9205 57.282 23.9827C57.1283 24.0366 57.018 24.138 57.018 24.2253C57.018 24.3079 56.9009 24.4731 56.7575 24.5924C56.6142 24.7114 56.4956 24.8796 56.4935 24.9658C56.4915 25.0521 56.4007 25.1579 56.2918 25.2005C56.1828 25.243 55.9554 25.4231 55.7863 25.6003C55.5362 25.8621 55.0719 26.179 54.9378 26.179C54.9223 26.179 54.6879 25.8614 54.417 25.4732C54.146 25.0849 53.8841 24.7424 53.835 24.7118C53.5689 24.547 53.5529 24.9051 53.5471 31.1919C53.5414 37.1537 53.5319 37.5353 53.3874 37.5634C53.2845 37.5834 53.2495 37.5518 53.2817 37.4677Z" fill="#F9FAFB" stroke="#F9FAFB"/>
<path d="M38.2346 37.1535C38.4953 36.9111 38.5 36.8947 38.3384 36.7936C38.2455 36.7351 38.1288 36.5701 38.079 36.427C38.0294 36.2836 37.9537 36.1665 37.9109 36.1665C37.8683 36.1665 37.7573 36.0172 37.664 35.835C37.5709 35.6527 37.3919 35.4071 37.2661 35.2893C37.1404 35.1715 37.0376 35.0217 37.0376 34.9566C37.0376 34.8916 37.0028 34.7692 36.9602 34.6848C36.9176 34.6003 36.8072 34.3722 36.715 34.1777C36.6228 33.9834 36.4628 33.7862 36.3591 33.7399C36.1831 33.6612 36.1918 33.6475 36.4941 33.5332C37.0001 33.3423 37.1205 33.3831 37.6911 33.9392C38.7003 34.9229 38.947 35.0066 39.5949 34.5874C40.0705 34.2793 44.131 30.2199 44.9719 29.2114C45.6553 28.3915 45.7539 28.3064 45.6896 28.5876C45.1423 30.9933 43.6133 33.6103 41.7907 35.2618C40.9038 36.0652 38.9805 37.1931 38.2258 37.3521L37.9618 37.4075L38.2346 37.1535Z" fill="#F9FAFB" stroke="#F9FAFB"/>
<path d="M70.7711 26.5548L70.7934 15.4407L77.2408 15.4181L83.6882 15.3953V17.2962V19.197L81.0255 19.2152C79.5612 19.225 77.662 19.2349 76.805 19.2372C75.7013 19.2399 75.2161 19.2726 75.1399 19.3489C75.0051 19.4842 75.0245 24.1403 75.1603 24.2789C75.2138 24.3334 76.618 24.3842 78.8294 24.4114L82.4119 24.4556V26.2675V28.0794L78.8549 28.1024C76.408 28.1184 75.2612 28.1563 75.18 28.2237C75.0125 28.3635 75.0074 33.4942 75.1746 33.7239C75.279 33.867 75.5899 33.8776 79.5315 33.8709L83.7762 33.864V35.7663V37.669H77.2625H70.7485L70.7711 26.5548Z" fill="#F9FAFB" stroke="#F9FAFB"/>
<path d="M63.0087 37.0279C62.8157 36.773 62.5671 36.4467 62.4566 36.3029C62.3459 36.1594 61.1588 34.5685 59.8184 32.7676C58.4781 30.9668 57.2023 29.2547 56.9837 28.9631C55.0896 26.4366 54.9752 26.264 55.0954 26.1184C55.1482 26.0546 55.2381 26.0021 55.295 26.0021C55.3518 26.0021 55.555 25.8394 55.7463 25.6403C55.9376 25.4414 56.1833 25.2435 56.2922 25.2008C56.4012 25.1578 56.492 25.052 56.4939 24.9658C56.496 24.8796 56.6146 24.7114 56.7579 24.5923C56.9014 24.4729 57.0184 24.3079 57.0184 24.2252C57.0184 24.1378 57.1287 24.0365 57.2824 23.9827C57.4558 23.9219 57.5464 23.83 57.5464 23.7152C57.5464 23.6191 57.6159 23.5269 57.7006 23.5104C57.8109 23.489 58.0737 23.7816 58.6276 24.5427C59.4757 25.7076 59.7133 26.0297 60.3585 26.886C60.5965 27.2021 61.1009 27.878 61.4793 28.3885C62.6016 29.9019 62.5052 30.4714 62.4827 22.4605C62.4663 16.5655 62.4814 15.5897 62.5911 15.4984C62.6838 15.421 63.2428 15.3988 64.6434 15.4163L66.5685 15.4405L66.5796 26.3544C66.5858 32.3574 66.5719 37.3189 66.5483 37.3805C66.5162 37.4646 66.1181 37.492 64.9328 37.492H63.36L63.0087 37.0279Z" fill="#F9FAFB" stroke="#F9FAFB"/>
<path d="M38.3698 34.523C38.1526 34.3595 37.7992 34.0423 37.5841 33.8179C37.369 33.5933 37.142 33.41 37.0797 33.41C37.0174 33.41 36.9663 33.3419 36.9663 33.2589C36.9663 33.1761 36.3709 32.527 35.6432 31.817L34.3198 30.5259L34.3494 27.2862C34.376 24.3742 34.3943 24.0311 34.5286 23.8956C34.6697 23.7534 34.6988 23.7541 35.033 23.9058C35.2282 23.9945 35.3876 24.1028 35.3876 24.1464C35.3876 24.1903 35.5159 24.2811 35.6727 24.3486C35.8296 24.4162 36.1603 24.6229 36.4081 24.8081C38.0945 26.0702 38.2094 26.1329 38.5097 25.9589C38.9759 25.6887 40.5625 24.4325 40.5625 24.3334C40.5625 24.2724 40.6574 24.1715 40.7734 24.1093C40.8894 24.0468 41.5999 23.4818 42.3528 22.8536C43.1469 22.1907 43.8041 21.7072 43.9183 21.7019C44.0264 21.6968 44.5942 21.3159 45.1799 20.8555C47.4 19.1104 47.857 18.7804 48.0732 18.7634C48.4957 18.6106 48.6436 18.6002 48.7911 18.4876C48.8865 18.3914 49.0774 18.2877 49.2151 18.2571C49.3529 18.2267 49.6429 18.0184 49.8599 17.7946C50.2827 17.3582 50.7302 17.1144 50.9513 17.1999C51.0407 17.2347 51.0877 17.2024 51.0877 17.1065C51.0877 17.0261 51.206 16.8927 51.3503 16.8097C51.6509 16.6376 51.7234 16.2615 51.0411 16.4208C50.9983 16.3775 53.0221 14.7372 54.4548 13.6539C54.7119 13.4594 55.2337 13.0588 55.6144 12.7634C55.9951 12.4681 56.6222 11.9816 57.0082 11.682C57.9631 10.9409 58.7411 10.3195 59.6013 9.60984C60.0049 9.27695 60.4095 9.01318 60.5165 9.01318C60.8988 9.01318 61.2107 9.67526 61.0081 10.0569C60.9551 10.1568 60.5268 10.6909 60.0563 11.2441C59.5857 11.7972 58.8852 12.6416 58.4992 13.1207C58.1133 13.5996 57.6397 14.1777 57.4468 14.4052C57.2537 14.6327 56.7998 15.1704 56.4381 15.6C56.0762 16.0295 55.4546 16.7485 55.0567 17.1976C54.6586 17.6467 54.333 18.0871 54.333 18.1771C54.333 18.3034 53.1381 19.7543 52.8528 19.9741C52.8215 19.9983 52.464 20.416 52.059 20.9021C51.6537 21.3883 51.2202 21.8881 51.0953 22.0128C50.8154 22.2927 49.5136 23.8145 49.3335 24.0724C49.261 24.1763 49.1332 24.2611 49.0487 24.2611C48.9639 24.2611 48.5934 24.6215 48.2156 25.0718C47.8416 25.5177 47.1309 26.3659 46.6365 26.9567C46.1419 27.5473 45.7375 28.1048 45.7375 28.1956C45.7375 28.2866 45.6979 28.3856 45.6496 28.4156C45.6016 28.4455 45.2913 28.7961 44.9604 29.1942C44.1225 30.2028 40.0764 34.2627 39.6025 34.5708C39.1002 34.8971 38.8546 34.8876 38.3698 34.523ZM39.4768 32.8132C39.6632 32.5821 40.9804 31.1008 42.404 29.5206C43.8275 27.9404 45.5697 25.9916 46.275 25.1893C46.9806 24.3871 47.9672 23.2861 48.4674 22.7427C52.9355 17.8907 54.7554 15.9088 55.4294 15.1603C55.8635 14.6782 56.66 13.8161 57.1996 13.2446C58.2523 12.1294 58.4368 11.8761 58.2975 11.7355C58.2405 11.6783 57.7489 12.0683 56.864 12.8723C55.3085 14.2852 54.6888 14.8172 53.8944 15.4226C53.5807 15.6615 53.0876 16.0486 52.7981 16.2827C51.5777 17.2699 51.3718 17.4345 50.9122 17.7889C50.6468 17.9939 49.8575 18.6124 49.158 19.1639C47.9086 20.149 47.1073 20.776 46.0888 21.5652C45.8065 21.7841 45.1553 22.3012 44.6419 22.7142C43.2439 23.8394 42.7435 24.2288 40.8938 25.6317C38.8481 27.1832 38.5363 27.3991 38.3391 27.3991C38.1121 27.3991 36.6397 26.3525 36.5885 26.155C36.4144 26.0002 36.1629 25.7493 36.0529 25.6342C35.9366 25.5895 35.8139 25.4612 35.7803 25.349C35.6865 25.0349 35.1169 24.4821 34.8874 24.4821C34.7765 24.4821 34.6859 24.5231 34.6859 24.5733C34.6859 24.762 34.9559 25.3052 35.2109 25.6296L35.4753 25.9661L35.4739 27.9865L35.4724 30.0067L37.1184 31.6172C38.1883 32.6637 38.8298 33.2284 38.9513 33.2303C39.0702 33.2322 39.2612 33.0801 39.4768 32.8132Z" fill="url(#paint0_linear_277_6806)" stroke="url(#paint1_linear_277_6806)"/>
<path d="M48.0181 18.7312C48.0181 18.6886 48.4362 18.3243 48.947 17.9219C50.4595 16.7304 50.8603 16.4435 51.4437 16.2617C51.7229 16.2617 51.6597 16.6329 51.3505 16.8099C51.2061 16.8929 51.0879 17.0263 51.0879 17.1067C51.0879 17.2026 51.0409 17.235 50.9513 17.2002C50.7315 17.115 50.2835 17.3578 49.8675 17.7874C49.6415 18.0208 49.3381 18.2301 49.1392 18.2902C48.9516 18.3467 48.7752 18.4529 48.4169 18.6416C48.3514 18.7483 48.0181 18.823 48.0181 18.7312Z" fill="url(#paint2_linear_277_6806)" stroke="url(#paint3_linear_277_6806)"/>
<path d="M36.2209 26.0267C35.9372 25.7922 35.7405 25.7534 35.5926 25.9025C35.4342 26.062 34.686 24.9651 34.686 24.5736C34.686 24.5234 34.7767 24.4824 34.8876 24.4824C35.1171 24.4824 35.6866 25.0352 35.7804 25.3493C35.814 25.4615 35.9367 25.5898 36.053 25.6345C36.2366 25.8122 36.5743 26.1413 36.6157 26.1535C36.6157 26.3 36.5112 26.2662 36.2209 26.0267Z" fill="url(#paint4_linear_277_6806)" stroke="url(#paint5_linear_277_6806)"/>
<defs>
<linearGradient id="paint0_linear_277_6806" x1="47.6958" y1="9.01318" x2="47.6958" y2="34.8065" gradientUnits="userSpaceOnUse">
<stop stop-color="#DDBA56"/>
<stop offset="1" stop-color="#CF9D3C"/>
</linearGradient>
<linearGradient id="paint1_linear_277_6806" x1="47.6958" y1="9.01318" x2="47.6958" y2="34.8065" gradientUnits="userSpaceOnUse">
<stop stop-color="#DDBA56"/>
<stop offset="1" stop-color="#CF9D3C"/>
</linearGradient>
<linearGradient id="paint2_linear_277_6806" x1="49.8198" y1="16.2617" x2="49.8198" y2="18.7726" gradientUnits="userSpaceOnUse">
<stop stop-color="#DDBA56"/>
<stop offset="1" stop-color="#CF9D3C"/>
</linearGradient>
<linearGradient id="paint3_linear_277_6806" x1="49.8198" y1="16.2617" x2="49.8198" y2="18.7726" gradientUnits="userSpaceOnUse">
<stop stop-color="#DDBA56"/>
<stop offset="1" stop-color="#CF9D3C"/>
</linearGradient>
<linearGradient id="paint4_linear_277_6806" x1="35.6509" y1="24.4824" x2="35.6509" y2="26.2411" gradientUnits="userSpaceOnUse">
<stop stop-color="#DDBA56"/>
<stop offset="1" stop-color="#CF9D3C"/>
</linearGradient>
<linearGradient id="paint5_linear_277_6806" x1="35.6509" y1="24.4824" x2="35.6509" y2="26.2411" gradientUnits="userSpaceOnUse">
<stop stop-color="#DDBA56"/>
<stop offset="1" stop-color="#CF9D3C"/>
</linearGradient>
</defs>
</svg>
